<svg width="83" height="64" viewBox="0 0 83 64" fill="none" xmlns="http://www.w3.org/2000/svg">
<path d="M11.0444 3H7.66166C5.08709 3 3 5.08709 3 7.66165V17.9942C3 27.735 10.8965 35.6316 20.6374 35.6316V35.6316C30.3783 35.6316 38.2749 27.735 38.2749 17.9942V7.66166C38.2749 5.08709 36.1878 3 33.6132 3H29.7409" stroke="#4A5CD0" stroke-width="5" stroke-linecap="round"/>
<path d="M20.9377 36L20.9377 46.0519C20.9377 54.3075 27.6303 61 35.8859 61V61C44.1415 61 50.834 54.3075 50.834 46.0519V22.4737C50.834 16.9508 55.3111 12.4737 60.834 12.4737H64" stroke="#4A5CD0" stroke-width="5"/>
<circle cx="73" cy="13" r="7.5" stroke="#4A5CD0" stroke-width="5"/>
</svg>
